<?xml version="1.0" encoding="utf-8"?>
<!-- Generator: Adobe Illustrator 24.0.0, SVG Export Plug-In . SVG Version: 6.00 Build 0)  -->
<svg version="1.1" id="Camada_1" xmlns="http://www.w3.org/2000/svg" xmlns:xlink="http://www.w3.org/1999/xlink" x="0px" y="0px"
	 viewBox="0 0 850.39 850.39" style="enable-background:new 0 0 850.39 850.39;" xml:space="preserve">
<style type="text/css">
	.st0{fill:#24201B;}
	.st1{fill:#FC9F01;}
	.st2{fill:#FEFEFE;}
</style>
<g>
	<path class="st0" d="M424.56,622.41c-49.04-0.4-97.24-6.15-143.61-23.1c-19.62-7.17-38.27-16.3-54.17-30.15
		c-14.63-12.75-24.69-27.86-23.57-48.38c0.91-16.65,4.72-32.52,12.45-47.37c14.1-27.09,36.12-46.16,62.14-61.07
		c31.87-18.27,66.51-28.4,102.62-33.77c37.15-5.52,74.35-5.54,111.41,0.88c39,6.75,75.69,19.33,106.84,44.77
		c29.83,24.37,45.8,55.85,48.11,94.42c1.07,17.91-5.4,32.52-17.66,44.94c-16.86,17.09-37.81,27.48-59.94,35.69
		c-32.34,12-65.93,18.23-100.21,21.19C454.2,621.72,439.41,622.5,424.56,622.41z M414.81,382.58c2.79,4.78,5.2,8.74,7.46,12.78
		c6.41,11.43,14.21,22.13,19.37,34.2c5.06,11.83-2.79,21.75-15.63,20.21c-14.55-1.75-25.27-9.73-32.79-21.93
		c-7.24-11.72-14.09-23.69-20.85-35.7c-1.98-3.51-4.06-4.23-7.98-3.4c-11.4,2.43-22.64,5.34-33.8,8.68
		c-5.82,1.74-5.84,1.68-2.75,6.93c10.86,18.46,21.83,36.86,32.54,55.4c3.68,6.38,6,13.23,0.98,20.1c-4,5.47-11.29,6.83-20.1,4.16
		c-12.29-3.72-21.55-11.21-27.99-22.31c-8.08-13.93-16.33-27.76-24.29-41.76c-1.93-3.4-3.73-3.81-6.86-1.71
		c-5.64,3.8-11.63,7.11-17.15,11.08c-27.54,19.82-47.18,44.88-53.21,79.32c-3.85,21.96,2,39.94,19.05,54.47
		c17.92,15.26,38.79,24.84,60.8,32.22c42.24,14.16,85.94,19.37,130.25,19.78c32.87,0.3,65.5-2.63,97.75-9.43
		c27.78-5.86,54.66-14.15,79.45-28.32c8.33-4.76,16.19-10.2,23-17.16c-1.56-1.21-2.5-0.36-3.55,0.08c-7.2,3-14.34,6.19-21.66,8.88
		c-45.1,16.56-91.87,24.33-139.74,25.8c-44.84,1.38-89.11-3.41-132.7-13.97c-22.64-5.48-44.7-12.84-66.03-22.25
		c-2.57-1.14-6.52-2.06-4.68-6.15c1.63-3.62,4.83-1.89,7.37-0.76c16.57,7.37,33.65,13.3,51.1,18.22
		c36.87,10.4,74.47,16.01,112.71,17.31c38.92,1.32,77.52-1.5,115.68-9.71c31.51-6.79,61.8-16.88,90.57-31.5
		c2.81-1.43,4.44-3.44,5.38-6.1c1.44-4.07,2.63-8.19,2.74-12.62c0.75-29.8-8-56.43-27.03-79.39
		c-19.41-23.41-44.77-38.17-72.92-48.59c-8.51-3.15-17.13-5.94-26.84-8.04c7.49,12.75,14.58,24.72,21.57,36.76
		c7.08,12.2,14.22,24.37,21.02,36.72c3,5.45,3.16,11.36-0.97,16.44c-4.25,5.22-10.25,5.86-16.41,4.64
		c-13.48-2.66-23.71-10.16-30.67-21.87c-15.35-25.83-30.54-51.76-45.71-77.7c-1.18-2.02-2.28-3.44-4.82-3.61
		C442.84,381.83,429.24,381.72,414.81,382.58z M468.93,383.89c0.29,0.93,0.36,1.58,0.67,2.09c14.87,25.36,29.61,50.8,44.74,76.01
		c5.05,8.43,12.98,13.72,22.48,16.32c4.04,1.1,8.61,2.06,11.58-1.83c2.99-3.91,0.71-8.02-1.39-11.62
		c-14.31-24.54-28.71-49.02-43.09-73.52c-0.75-1.28-1.4-2.56-3.16-2.88C490.33,386.55,479.9,384.63,468.93,383.89z M346.87,477.78
		c8.43,0.36,11.29-3.32,9.17-9.97c-0.35-1.1-0.75-2.22-1.33-3.21c-11.75-20.06-23.56-40.1-35.27-60.19
		c-1.15-1.97-2.22-2.55-4.35-1.61c-6.36,2.84-12.75,5.63-19.19,8.27c-2.39,0.98-2.78,1.87-1.37,4.23
		c8.95,14.97,17.48,30.2,26.64,45.03C327.31,470.29,336.54,476.21,346.87,477.78z M377.33,386.57c8.33,14,15.73,27.77,24.45,40.66
		c6.23,9.21,15.39,15.21,27.21,15.24c5.47,0.01,7.78-3.31,6.39-8.62c-0.46-1.75-1.12-3.5-2.03-5.05
		c-8.35-14.36-16.82-28.65-25.13-43.03c-1.19-2.06-2.48-2.66-4.76-2.47C395,384,386.6,384.97,377.33,386.57z"/>
	<path class="st0" d="M418.76,316.06c-0.25-7.99-1.73-15.6-7.59-21.56c-9.18-9.34-11.79-20.42-9.33-33.04
		c1.38-7.09,4.02-13.66,7.57-19.9c1.34-2.35,3.03-4.34,5.93-2.53c2.61,1.62,1.81,3.87,0.49,6.08c-3.89,6.48-6.49,13.45-7.38,20.98
		c-0.88,7.4,0.1,14.81,5.36,20.1c13.26,13.34,13.81,29.08,10.06,45.9c-1.33,6-3.28,11.83-5.77,17.46c-1.2,2.72-2.17,6.39-6.16,4.62
		c-3.74-1.66-1.71-4.75-0.61-7.29C415.59,337.03,418.33,326.82,418.76,316.06z"/>
	<path class="st0" d="M465.17,238.41c3.09-0.02,4.54,2.95,2.7,6.12c-3.61,6.24-6.34,12.79-7.45,19.93
		c-1.28,8.26-0.29,16.34,5.68,22.4c11.07,11.23,12.92,24.63,10.69,39.22c-1.31,8.56-3.93,16.78-7.46,24.71
		c-1.11,2.49-2.49,4.75-5.53,3.44c-3.11-1.34-2.2-3.89-1.14-6.35c5.09-11.87,8.75-24.04,7.42-37.2c-0.58-5.78-2.32-11.22-6.43-15.34
		c-12.27-12.27-13.06-26.5-7.86-41.96c1.43-4.27,3.36-8.3,5.6-12.19C462.23,239.73,463.19,238.36,465.17,238.41z"/>
	<path class="st0" d="M435.54,228.51c4.21-0.21,5.52,2.81,3.47,6.45c-3.96,7.02-6.9,14.37-7.52,22.48
		c-0.58,7.62,1.07,14.78,6.52,20.25c9.53,9.56,11.91,21.19,10.72,33.94c-0.94,9.99-3.8,19.53-7.8,28.72
		c-1.09,2.51-2.26,5.34-5.7,3.95c-3.55-1.44-2.22-4.21-1.1-6.72c3.76-8.39,6.39-17.1,7.38-26.26c1.15-10.71-0.77-20.37-8.69-28.48
		c-7.17-7.34-9.57-16.59-8.6-26.65c0.85-8.71,3.83-16.8,8.19-24.37C433.34,230.26,434.26,228.65,435.54,228.51z"/>
	<path class="st0" d="M390.03,308.11c0.04-10.87-2.58-18.5-8.84-25.09c-9.04-9.52-10.47-21.07-7.58-33.48
		c1.48-6.36,3.93-12.31,7.21-17.94c1.26-2.16,2.77-4.15,5.5-2.73c2.97,1.56,2.19,3.96,0.81,6.37c-4.76,8.35-7.96,17.14-7.35,26.99
		c0.34,5.5,1.84,10.74,5.71,14.55c11.7,11.52,13.17,25.47,10.64,40.61c-1.38,8.24-4,16.08-7.28,23.74c-1.1,2.56-2.72,4.53-5.68,3.11
		c-2.72-1.3-2.16-3.65-1.1-6C386.7,328.01,389.78,317.39,390.03,308.11z"/>
	<path class="st1" d="M414.81,382.58c14.43-0.86,28.03-0.75,41.64,0.16c2.55,0.17,3.64,1.59,4.82,3.61
		c15.17,25.94,30.36,51.87,45.71,77.7c6.96,11.72,17.19,19.21,30.67,21.87c6.17,1.22,12.16,0.58,16.41-4.64
		c4.13-5.08,3.97-10.99,0.97-16.44c-6.8-12.35-13.94-24.52-21.02-36.72c-6.99-12.03-14.09-24.01-21.57-36.76
		c9.71,2.1,18.34,4.89,26.84,8.04c28.15,10.42,53.51,25.18,72.92,48.59c19.03,22.95,27.78,49.58,27.03,79.39
		c-0.11,4.43-1.3,8.55-2.74,12.62c-0.94,2.66-2.57,4.67-5.38,6.1c-28.77,14.62-59.06,24.71-90.57,31.5
		c-38.16,8.22-76.76,11.04-115.68,9.71c-38.24-1.3-75.84-6.91-112.71-17.31c-17.45-4.92-34.53-10.85-51.1-18.22
		c-2.54-1.13-5.74-2.85-7.37,0.76c-1.84,4.09,2.1,5.02,4.68,6.15c21.33,9.41,43.39,16.77,66.03,22.25
		c43.59,10.56,87.86,15.35,132.7,13.97c47.87-1.47,94.64-9.24,139.74-25.8c7.32-2.69,14.46-5.88,21.66-8.88
		c1.06-0.44,2-1.29,3.55-0.08c-6.82,6.96-14.67,12.4-23,17.16c-24.79,14.17-51.66,22.45-79.45,28.32
		c-32.25,6.8-64.88,9.73-97.75,9.43c-44.31-0.41-88.01-5.62-130.25-19.78c-22-7.37-42.88-16.96-60.8-32.22
		c-17.05-14.52-22.9-32.51-19.05-54.47c6.03-34.44,25.67-59.5,53.21-79.32c5.52-3.97,11.5-7.28,17.15-11.08
		c3.13-2.1,4.93-1.69,6.86,1.71c7.96,14,16.21,27.83,24.29,41.76c6.44,11.1,15.69,18.58,27.99,22.31c8.81,2.67,16.1,1.31,20.1-4.16
		c5.02-6.86,2.7-13.72-0.98-20.1c-10.71-18.54-21.68-36.94-32.54-55.4c-3.09-5.24-3.07-5.19,2.75-6.93
		c11.15-3.33,22.4-6.25,33.8-8.68c3.93-0.84,6.01-0.12,7.98,3.4c6.76,12.01,13.61,23.97,20.85,35.7
		c7.53,12.2,18.25,20.18,32.79,21.93c12.84,1.55,20.69-8.38,15.63-20.21c-5.16-12.07-12.96-22.77-19.37-34.2
		C420.01,391.32,417.61,387.36,414.81,382.58z M331.09,516.41c-0.03-3.72-3.37-7.16-6.95-6.81c-3.95,0.38-6.31,2.79-6.67,6.71
		c-0.33,3.57,3.19,6.99,6.82,7.01C328.1,523.35,331.12,520.28,331.09,516.41z M488.13,521.26c-0.09-3.68-3.06-6.64-6.68-6.67
		c-3.84-0.03-6.84,3.08-6.75,7.02c0.08,3.71,2.96,6.61,6.6,6.67C485.11,528.34,488.22,525.14,488.13,521.26z M459.91,477.77
		c2.98-0.18,4.7-1.71,4.77-4.3c0.07-2.89-1.86-4.63-4.69-4.6c-2.88,0.04-4.65,1.94-4.47,4.79
		C455.69,476.25,457.47,477.72,459.91,477.77z M420.65,497.51c-0.62-2.76-2.09-4.47-5.11-4.24c-2.78,0.21-4.26,1.97-4.2,4.53
		c0.07,2.61,1.9,4.32,4.49,4.35C418.7,502.18,420.22,500.29,420.65,497.51z M544.01,513.51c-0.53-2.21-1.52-4.24-4.47-4.18
		c-3.01,0.05-4.64,1.69-4.57,4.7c0.06,2.88,1.98,4.24,4.57,4.22C542.24,518.23,543.67,516.45,544.01,513.51z"/>
	<path class="st2" d="M468.93,383.89c10.96,0.74,21.39,2.65,31.83,4.57c1.76,0.32,2.41,1.6,3.16,2.88
		c14.38,24.5,28.78,48.98,43.09,73.52c2.1,3.6,4.38,7.7,1.39,11.62c-2.97,3.89-7.54,2.93-11.58,1.83
		c-9.51-2.59-17.43-7.89-22.48-16.32c-15.12-25.21-29.87-50.65-44.74-76.01C469.3,385.47,469.22,384.82,468.93,383.89z"/>
	<path class="st2" d="M346.87,477.78c-10.34-1.57-19.56-7.49-25.71-17.44c-9.16-14.84-17.69-30.06-26.64-45.03
		c-1.41-2.36-1.02-3.25,1.37-4.23c6.45-2.64,12.83-5.43,19.19-8.27c2.13-0.95,3.2-0.36,4.35,1.61
		c11.71,20.09,23.52,40.12,35.27,60.19c0.58,0.99,0.98,2.11,1.33,3.21C358.16,474.46,355.3,478.14,346.87,477.78z"/>
	<path class="st2" d="M377.33,386.57c9.27-1.6,17.67-2.57,26.13-3.28c2.28-0.19,3.57,0.41,4.76,2.47
		c8.3,14.39,16.78,28.67,25.13,43.03c0.9,1.56,1.57,3.31,2.03,5.05c1.39,5.31-0.91,8.63-6.39,8.62
		c-11.82-0.03-20.98-6.03-27.21-15.24C393.06,414.35,385.66,400.57,377.33,386.57z"/>
	<path class="st0" d="M331.09,516.41c0.03,3.87-2.99,6.94-6.81,6.92c-3.63-0.02-7.15-3.44-6.82-7.01c0.36-3.92,2.72-6.33,6.67-6.71
		C327.72,509.26,331.06,512.69,331.09,516.41z"/>
	<path class="st0" d="M488.13,521.26c0.09,3.88-3.02,7.08-6.83,7.02c-3.64-0.06-6.52-2.96-6.6-6.67c-0.09-3.93,2.91-7.05,6.75-7.02
		C485.07,514.63,488.04,517.59,488.13,521.26z"/>
	<path class="st0" d="M459.91,477.77c-2.44-0.05-4.22-1.52-4.39-4.1c-0.19-2.86,1.58-4.76,4.47-4.79c2.83-0.04,4.76,1.7,4.69,4.6
		C464.61,476.06,462.9,477.59,459.91,477.77z"/>
	<path class="st0" d="M420.65,497.51c-0.43,2.78-1.95,4.67-4.82,4.63c-2.6-0.03-4.42-1.74-4.49-4.35c-0.07-2.56,1.42-4.32,4.2-4.53
		C418.57,493.04,420.03,494.75,420.65,497.51z"/>
	<path class="st0" d="M544.01,513.51c-0.34,2.94-1.77,4.72-4.48,4.74c-2.6,0.02-4.51-1.35-4.57-4.22c-0.06-3.01,1.56-4.65,4.57-4.7
		C542.49,509.28,543.48,511.3,544.01,513.51z"/>
</g>
</svg>
